<?xml version="1.0" encoding="UTF-8"?>
<svg width="117px" height="31px" viewBox="0 0 117 31" version="1.1" xmlns="http://www.w3.org/2000/svg" xmlns:xlink="http://www.w3.org/1999/xlink">
    <title>Logo/Logo Dark</title>
    <defs>
        <path d="M0.3876,7.3340928 C1.2281037,2.53032674 5.77037037,-0.620787302 10.449437,0.354406838 C15.0412444,1.3114779 17.9320593,6.00593016 17.0513037,10.7098755 L17.0513037,10.7098755 L16.7228148,12.4640742 C16.3788444,14.299683 17.556563,16.0725802 19.3524148,16.4238227 C23.0229333,17.1415541 25.5841333,20.722444 24.8987259,24.4765099 C24.2121926,28.2343155 20.6601778,30.698191 16.9896593,29.9629118 C13.3228,29.2282081 11.011837,25.4735668 11.7141333,21.7223775 C12.0575407,19.8867687 10.8803852,18.1141592 9.08425185,17.7629167 L9.08425185,17.7629167 L7.3674963,17.4272083 C2.76471111,16.5270955 -0.437140741,12.0486818 0.3876,7.3340928 Z" id="path-1"></path>
        <linearGradient x1="0.421584559%" y1="5.35154986%" x2="100%" y2="95.0281133%" id="linearGradient-3">
            <stop stop-color="#E85182" offset="0%"></stop>
            <stop stop-color="#EE973C" offset="100%"></stop>
        </linearGradient>
        <path d="M1.6416,1.43517509 C-0.201540741,3.31853675 -0.201540741,6.37241905 1.6416,8.25578071 C3.48417778,10.1391424 6.47238519,10.1391424 8.31552593,8.25578071 C10.1581037,6.37241905 10.1581037,3.31853675 8.31552593,1.43517509 C6.47238519,-0.448186569 3.48417778,-0.448186569 1.6416,1.43517509" id="path-4"></path>
        <linearGradient x1="2.53106044%" y1="0.421584559%" x2="97.8725864%" y2="100%" id="linearGradient-6">
            <stop stop-color="#E85182" offset="0%"></stop>
            <stop stop-color="#EE973C" offset="100%"></stop>
        </linearGradient>
    </defs>
    <g id="Symbols" stroke="none" stroke-width="1" fill="none" fill-rule="evenodd">
        <g id="Nav/Standard" transform="translate(-150.000000, -25.000000)">
            <g id="Group" transform="translate(150.000000, 21.000000)">
                <g id="Logo" transform="translate(0.000000, 4.000000)">
                    <g id="Group-2">
                        <g id="Group-12" transform="translate(1.688889, 0.000000)">
                            <mask id="mask-2" fill="white">
                                <use xlink:href="#path-1"></use>
                            </mask>
                            <g id="Clip-11"></g>
                            <polygon id="Fill-10" fill="url(#linearGradient-3)" mask="url(#mask-2)" points="-1.62207407 31.1772034 31.0445926 31.1772034 31.0445926 0.177203419 -1.62207407 0.177203419"></polygon>
                        </g>
                        <g id="Group-15" transform="translate(0.000000, 20.424420)">
                            <mask id="mask-5" fill="white">
                                <use xlink:href="#path-4"></use>
                            </mask>
                            <g id="Clip-14"></g>
                            <path d="M1.6416,1.43517509 C-0.201540741,3.31853675 -0.201540741,6.37241905 1.6416,8.25578071 C3.48417778,10.1391424 6.47238519,10.1391424 8.31552593,8.25578071 C10.1581037,6.37241905 10.1581037,3.31853675 8.31552593,1.43517509 C6.47238519,-0.448186569 3.48417778,-0.448186569 1.6416,1.43517509" id="Fill-13" fill="url(#linearGradient-6)" mask="url(#mask-5)"></path>
                        </g>
                    </g>
                    <path d="M43.32,24.88 C43.4533333,24.88 43.5833333,24.84 43.71,24.76 C43.8366667,24.68 43.9333333,24.5666667 44,24.42 L44,24.42 L49.62,12.3 C49.6733333,12.2066667 49.7,12.1 49.7,11.98 C49.7,11.78 49.62,11.6133333 49.46,11.48 C49.3,11.3466667 49.12,11.28 48.92,11.28 C48.6,11.28 48.3666667,11.44 48.22,11.76 L48.22,11.76 L44.88,19.22 L41.54,11.72 C41.4733333,11.5733333 41.3766667,11.46 41.25,11.38 C41.1233333,11.3 40.9933333,11.26 40.86,11.26 C40.6466667,11.26 40.45,11.3333333 40.27,11.48 C40.09,11.6266667 40,11.8 40,12 C40,12.1066667 40.0266667,12.2066667 40.08,12.3 L40.08,12.3 L44.04,20.86 L42.64,23.88 C42.5866667,23.9866667 42.56,24.0933333 42.56,24.2 C42.56,24.4 42.6366667,24.5633333 42.79,24.69 C42.9433333,24.8166667 43.12,24.88 43.32,24.88 Z M55.4,21.34 C56.32,21.34 57.1333333,21.1333333 57.84,20.72 C58.5466667,20.3066667 59.09,19.7166667 59.47,18.95 C59.85,18.1833333 60.04,17.2933333 60.04,16.28 C60.04,15.2666667 59.85,14.3766667 59.47,13.61 C59.09,12.8433333 58.5466667,12.2533333 57.84,11.84 C57.1333333,11.4266667 56.32,11.22 55.4,11.22 C54.48,11.22 53.67,11.4266667 52.97,11.84 C52.27,12.2533333 51.73,12.8433333 51.35,13.61 C50.97,14.3766667 50.78,15.2666667 50.78,16.28 C50.78,17.2933333 50.97,18.1833333 51.35,18.95 C51.73,19.7166667 52.27,20.3066667 52.97,20.72 C53.67,21.1333333 54.48,21.34 55.4,21.34 Z M55.4,20 C54.44,20 53.7033333,19.68 53.19,19.04 C52.6766667,18.4 52.42,17.48 52.42,16.28 C52.42,15.0933333 52.68,14.1766667 53.2,13.53 C53.72,12.8833333 54.4533333,12.56 55.4,12.56 C56.3466667,12.56 57.08,12.8833333 57.6,13.53 C58.12,14.1766667 58.38,15.0933333 58.38,16.28 C58.38,17.4933333 58.1233333,18.4166667 57.61,19.05 C57.0966667,19.6833333 56.36,20 55.4,20 Z M65.92,21.34 C66.6133333,21.34 67.2366667,21.1866667 67.79,20.88 C68.3433333,20.5733333 68.7733333,20.1266667 69.08,19.54 L69.08,19.54 L69.08,20.54 C69.08,20.7666667 69.15,20.95 69.29,21.09 C69.43,21.23 69.62,21.3 69.86,21.3 C70.1133333,21.3 70.31,21.2266667 70.45,21.08 C70.59,20.9333333 70.66,20.7466667 70.66,20.52 L70.66,20.52 L70.66,12.06 C70.66,11.82 70.59,11.6266667 70.45,11.48 C70.31,11.3333333 70.1133333,11.26 69.86,11.26 C69.6066667,11.26 69.4066667,11.3333333 69.26,11.48 C69.1133333,11.6266667 69.04,11.82 69.04,12.06 L69.04,12.06 L69.04,16.96 C69.04,17.8666667 68.78,18.5966667 68.26,19.15 C67.74,19.7033333 67.0533333,19.98 66.2,19.98 C65.4533333,19.98 64.9066667,19.7766667 64.56,19.37 C64.2133333,18.9633333 64.04,18.3266667 64.04,17.46 L64.04,17.46 L64.04,12.06 C64.04,11.82 63.97,11.6266667 63.83,11.48 C63.69,11.3333333 63.4933333,11.26 63.24,11.26 C62.9866667,11.26 62.7866667,11.3333333 62.64,11.48 C62.4933333,11.6266667 62.42,11.82 62.42,12.06 L62.42,12.06 L62.42,17.5 C62.42,18.7666667 62.7133333,19.7233333 63.3,20.37 C63.8866667,21.0166667 64.76,21.34 65.92,21.34 Z M74.5,21.3 C74.74,21.3 74.9333333,21.2333333 75.08,21.1 C75.2266667,20.9666667 75.3,20.7666667 75.3,20.5 L75.3,20.5 L75.3,15.64 C75.3,14.8933333 75.5166667,14.2433333 75.95,13.69 C76.3833333,13.1366667 77.0466667,12.82 77.94,12.74 L77.94,12.74 L78.54,12.68 C78.8333333,12.6533333 79.04,12.5766667 79.16,12.45 C79.28,12.3233333 79.34,12.1533333 79.34,11.94 C79.34,11.4466667 79.06,11.22 78.5,11.26 L78.5,11.26 L78.22,11.28 C77.5533333,11.3333333 76.9633333,11.5133333 76.45,11.82 C75.9366667,12.1266667 75.54,12.5733333 75.26,13.16 L75.26,13.16 L75.26,12.04 C75.26,11.8 75.1866667,11.61 75.04,11.47 C74.8933333,11.33 74.7133333,11.26 74.5,11.26 C74.2733333,11.26 74.08,11.33 73.92,11.47 C73.76,11.61 73.68,11.8066667 73.68,12.06 L73.68,12.06 L73.68,20.5 C73.68,20.7533333 73.7566667,20.95 73.91,21.09 C74.0633333,21.23 74.26,21.3 74.5,21.3 Z M81.56,21.3 C81.7866667,21.3 81.9766667,21.23 82.13,21.09 C82.2833333,20.95 82.36,20.7533333 82.36,20.5 L82.36,20.5 L82.36,7.8 C82.36,7.54666667 82.2833333,7.35 82.13,7.21 C81.9766667,7.07 81.7866667,7 81.56,7 C81.32,7 81.1233333,7.07 80.97,7.21 C80.8166667,7.35 80.74,7.54666667 80.74,7.8 L80.74,7.8 L80.74,20.5 C80.74,20.7533333 80.8166667,20.95 80.97,21.09 C81.1233333,21.23 81.32,21.3 81.56,21.3 Z M89.42,21.34 C90.34,21.34 91.1533333,21.1333333 91.86,20.72 C92.5666667,20.3066667 93.11,19.7166667 93.49,18.95 C93.87,18.1833333 94.06,17.2933333 94.06,16.28 C94.06,15.2666667 93.87,14.3766667 93.49,13.61 C93.11,12.8433333 92.5666667,12.2533333 91.86,11.84 C91.1533333,11.4266667 90.34,11.22 89.42,11.22 C88.5,11.22 87.69,11.4266667 86.99,11.84 C86.29,12.2533333 85.75,12.8433333 85.37,13.61 C84.99,14.3766667 84.8,15.2666667 84.8,16.28 C84.8,17.2933333 84.99,18.1833333 85.37,18.95 C85.75,19.7166667 86.29,20.3066667 86.99,20.72 C87.69,21.1333333 88.5,21.34 89.42,21.34 Z M89.42,20 C88.46,20 87.7233333,19.68 87.21,19.04 C86.6966667,18.4 86.44,17.48 86.44,16.28 C86.44,15.0933333 86.7,14.1766667 87.22,13.53 C87.74,12.8833333 88.4733333,12.56 89.42,12.56 C90.3666667,12.56 91.1,12.8833333 91.62,13.53 C92.14,14.1766667 92.4,15.0933333 92.4,16.28 C92.4,17.4933333 92.1433333,18.4166667 91.63,19.05 C91.1166667,19.6833333 90.38,20 89.42,20 Z M100.76,24.94 C102.226667,24.94 103.333333,24.57 104.08,23.83 C104.826667,23.09 105.2,21.9933333 105.2,20.54 L105.2,20.54 L105.2,12.06 C105.2,11.82 105.126667,11.6266667 104.98,11.48 C104.833333,11.3333333 104.633333,11.26 104.38,11.26 C104.126667,11.26 103.93,11.3333333 103.79,11.48 C103.65,11.6266667 103.58,11.82 103.58,12.06 L103.58,12.06 L103.58,13.14 C103.286667,12.5266667 102.853333,12.0533333 102.28,11.72 C101.706667,11.3866667 101.033333,11.22 100.26,11.22 C99.4066667,11.22 98.65,11.42 97.99,11.82 C97.33,12.22 96.8166667,12.7866667 96.45,13.52 C96.0833333,14.2533333 95.9,15.1 95.9,16.06 C95.9,17.02 96.0833333,17.8666667 96.45,18.6 C96.8166667,19.3333333 97.33,19.9 97.99,20.3 C98.65,20.7 99.4066667,20.9 100.26,20.9 C101.046667,20.9 101.73,20.7333333 102.31,20.4 C102.89,20.0666667 103.32,19.5866667 103.6,18.96 L103.6,18.96 L103.6,20.68 C103.6,21.64 103.36,22.37 102.88,22.87 C102.4,23.37 101.686667,23.62 100.74,23.62 C100.113333,23.62 99.5733333,23.5466667 99.12,23.4 C98.6666667,23.2533333 98.2066667,23.06 97.74,22.82 C97.3933333,22.6333333 97.1533333,22.54 97.02,22.54 C96.86,22.54 96.73,22.6 96.63,22.72 C96.53,22.84 96.48,22.9933333 96.48,23.18 C96.48,23.5266667 96.72,23.8333333 97.2,24.1 C98.1466667,24.66 99.3333333,24.94 100.76,24.94 Z M100.58,19.56 C99.6333333,19.56 98.89,19.25 98.35,18.63 C97.81,18.01 97.54,17.1533333 97.54,16.06 C97.54,14.98 97.81,14.13 98.35,13.51 C98.89,12.89 99.6333333,12.58 100.58,12.58 C101.526667,12.58 102.263333,12.89 102.79,13.51 C103.316667,14.13 103.58,14.98 103.58,16.06 C103.58,17.1533333 103.313333,18.01 102.78,18.63 C102.246667,19.25 101.513333,19.56 100.58,19.56 Z M112.24,21.34 C113.16,21.34 113.973333,21.1333333 114.68,20.72 C115.386667,20.3066667 115.93,19.7166667 116.31,18.95 C116.69,18.1833333 116.88,17.2933333 116.88,16.28 C116.88,15.2666667 116.69,14.3766667 116.31,13.61 C115.93,12.8433333 115.386667,12.2533333 114.68,11.84 C113.973333,11.4266667 113.16,11.22 112.24,11.22 C111.32,11.22 110.51,11.4266667 109.81,11.84 C109.11,12.2533333 108.57,12.8433333 108.19,13.61 C107.81,14.3766667 107.62,15.2666667 107.62,16.28 C107.62,17.2933333 107.81,18.1833333 108.19,18.95 C108.57,19.7166667 109.11,20.3066667 109.81,20.72 C110.51,21.1333333 111.32,21.34 112.24,21.34 Z M112.24,20 C111.28,20 110.543333,19.68 110.03,19.04 C109.516667,18.4 109.26,17.48 109.26,16.28 C109.26,15.0933333 109.52,14.1766667 110.04,13.53 C110.56,12.8833333 111.293333,12.56 112.24,12.56 C113.186667,12.56 113.92,12.8833333 114.44,13.53 C114.96,14.1766667 115.22,15.0933333 115.22,16.28 C115.22,17.4933333 114.963333,18.4166667 114.45,19.05 C113.936667,19.6833333 113.2,20 112.24,20 Z" id="yourlogo" fill="#171C2D" fill-rule="nonzero"></path>
                </g>
            </g>
        </g>
    </g>
</svg>